<svg xmlns="http://www.w3.org/2000/svg" width="56" height="24" viewBox="0 0 56 24"><g fill="#c6ced9" stroke="#fff" strokeWidth="1"><rect width="24" height="24" rx="12" stroke="none"/><rect x="0.5" y="0.5" width="23" height="23" rx="11.5" fill="none"/></g><g transform="translate(5.5 5.5)"><path d="M.288,1.076l-.011.011A3.362,3.362,0,0,1,0,0,3.337,3.337,0,0,0,.288,1.076Z" transform="translate(1.114 9.222)" fill="#fff"/><path d="M2.586,1.293A1.293,1.293,0,1,1,1.293,0,1.293,1.293,0,0,1,2.586,1.293Z" transform="translate(3.583 3.042)" fill="#fff"/><path d="M7.682,0H3.145A2.889,2.889,0,0,0,0,3.145V7.682A3.639,3.639,0,0,0,.3,9.219a2.884,2.884,0,0,0,2.842,1.608H7.682a2.889,2.889,0,0,0,3.145-3.145V3.145A2.889,2.889,0,0,0,7.682,0ZM9.944,5.684a1.207,1.207,0,0,0-1.527,0L6.166,7.617a1.207,1.207,0,0,1-1.527,0l-.184-.152a1.2,1.2,0,0,0-1.429-.076L1,8.748A2.887,2.887,0,0,1,.812,7.682V3.145A2.086,2.086,0,0,1,3.145.812H7.682a2.086,2.086,0,0,1,2.333,2.333v2.6Z" transform="translate(1.087 1.087)" fill="#fff"/><path d="M0,0H13V13H0Z" fill="none" opacity="0"/></g><g transform="translate(16)"><g fill="#c6ced9" stroke="#fff" strokeWidth="1"><rect width="24" height="24" rx="12" stroke="none"/><rect x="0.5" y="0.5" width="23" height="23" rx="11.5" fill="none"/></g><g transform="translate(5.5 5.5)"><path d="M.288,1.076l-.011.011A3.362,3.362,0,0,1,0,0,3.337,3.337,0,0,0,.288,1.076Z" transform="translate(1.114 9.222)" fill="#fff"/><path d="M2.586,1.293A1.293,1.293,0,1,1,1.293,0,1.293,1.293,0,0,1,2.586,1.293Z" transform="translate(3.583 3.042)" fill="#fff"/><path d="M7.682,0H3.145A2.889,2.889,0,0,0,0,3.145V7.682A3.639,3.639,0,0,0,.3,9.219a2.884,2.884,0,0,0,2.842,1.608H7.682a2.889,2.889,0,0,0,3.145-3.145V3.145A2.889,2.889,0,0,0,7.682,0ZM9.944,5.684a1.207,1.207,0,0,0-1.527,0L6.166,7.617a1.207,1.207,0,0,1-1.527,0l-.184-.152a1.2,1.2,0,0,0-1.429-.076L1,8.748A2.887,2.887,0,0,1,.812,7.682V3.145A2.086,2.086,0,0,1,3.145.812H7.682a2.086,2.086,0,0,1,2.333,2.333v2.6Z" transform="translate(1.087 1.087)" fill="#fff"/><path d="M0,0H13V13H0Z" fill="none" opacity="0"/></g></g><g transform="translate(32)"><g fill="#c6ced9" stroke="#fff" strokeWidth="1"><rect width="24" height="24" rx="12" stroke="none"/><rect x="0.5" y="0.5" width="23" height="23" rx="11.5" fill="none"/></g><g transform="translate(5.5 5.5)"><path d="M.288,1.076l-.011.011A3.362,3.362,0,0,1,0,0,3.337,3.337,0,0,0,.288,1.076Z" transform="translate(1.114 9.222)" fill="#fff"/><path d="M2.586,1.293A1.293,1.293,0,1,1,1.293,0,1.293,1.293,0,0,1,2.586,1.293Z" transform="translate(3.583 3.042)" fill="#fff"/><path d="M7.682,0H3.145A2.889,2.889,0,0,0,0,3.145V7.682A3.639,3.639,0,0,0,.3,9.219a2.884,2.884,0,0,0,2.842,1.608H7.682a2.889,2.889,0,0,0,3.145-3.145V3.145A2.889,2.889,0,0,0,7.682,0ZM9.944,5.684a1.207,1.207,0,0,0-1.527,0L6.166,7.617a1.207,1.207,0,0,1-1.527,0l-.184-.152a1.2,1.2,0,0,0-1.429-.076L1,8.748A2.887,2.887,0,0,1,.812,7.682V3.145A2.086,2.086,0,0,1,3.145.812H7.682a2.086,2.086,0,0,1,2.333,2.333v2.6Z" transform="translate(1.087 1.087)" fill="#fff"/><path d="M0,0H13V13H0Z" fill="none" opacity="0"/></g></g></svg>